<svg width="2000" height="2000" viewBox="0 0 2000 2000" fill="none" xmlns="http://www.w3.org/2000/svg">
<g clip-path="url(#clip0_1_1893)">
<g filter="url(#filter0_d_1_1893)">
<path fill-rule="evenodd" clip-rule="evenodd" d="M1164 87.106C1082.58 91.663 1001.15 105.418 924.048 127.638C911.647 131.212 895.425 135.873 888 137.995C874.008 141.994 865.584 145.186 863 147.467C862.175 148.196 858.8 149.335 855.5 149.999C848.646 151.379 833.508 156.991 827.319 160.447C825.02 161.731 820.102 163.763 816.39 164.962C802.48 169.456 745.986 196.423 712.581 214.515C589.001 281.446 481.666 377.793 401.223 494C380.583 523.817 367.06 546.567 353.561 574.185C341.13 599.615 339.002 604.181 338.03 607.5C337.547 609.15 334.713 615.9 331.732 622.5C328.752 629.1 324.92 638.55 323.217 643.5C316.178 663.968 308.112 690.01 306.493 697.5C305.542 701.9 303.702 709.1 302.404 713.5C299.175 724.444 295.191 742.4 293.517 753.554C292.752 758.649 291.668 764.546 291.108 766.658C289.985 770.892 286.868 794.233 284.318 817.5C283.007 829.462 282.692 842.242 282.765 880.602C282.849 925.612 282.988 929.266 284.927 937.431C286.067 942.231 287 948.519 287 951.405C287 958.457 288.871 976.866 290.466 985.5C294.747 1008.68 296.557 1017.09 301.485 1036.7C318.974 1106.31 342.776 1160.39 381.909 1219.45C416.82 1272.13 454.711 1312.78 506.718 1353.33C512.887 1358.14 519.656 1363.07 521.76 1364.29C523.863 1365.51 529.165 1369.03 533.542 1372.13C553.488 1386.23 607.306 1415.46 628 1423.44C632.125 1425.03 638.989 1427.82 643.254 1429.65C654.651 1434.52 685.065 1444.78 696 1447.44C701.225 1448.71 708.875 1450.7 713 1451.85C735.362 1458.09 772.425 1464.2 799.23 1466.06C823.217 1467.73 891.84 1466.75 902 1464.59C906.125 1463.72 911.822 1463 914.661 1463C917.499 1463 922.674 1462.11 926.161 1461.01C929.647 1459.92 934.075 1459.02 936 1459.02C950.779 1458.98 1008.96 1444.18 1032.82 1434.4C1037.59 1432.44 1043.08 1430.51 1045 1430.09C1046.93 1429.68 1049.4 1428.85 1050.5 1428.25C1051.6 1427.65 1054.66 1426.6 1057.3 1425.93C1059.94 1425.26 1063.87 1423.43 1066.04 1421.86C1068.21 1420.29 1070.89 1419 1072 1419C1074.61 1419 1094.44 1410.54 1098.34 1407.76C1099.98 1406.59 1104.48 1404.12 1108.34 1402.27C1112.19 1400.42 1118.23 1396.9 1121.75 1394.44C1125.26 1391.98 1129.68 1389.32 1131.56 1388.54C1133.44 1387.75 1138.21 1384.95 1142.15 1382.31C1146.1 1379.66 1151.39 1376.21 1153.91 1374.64C1159.42 1371.19 1184.68 1351.53 1187.5 1348.5C1188.6 1347.31 1191.3 1345.06 1193.5 1343.49C1202.49 1337.09 1229.35 1309.07 1236.89 1298.24C1238.13 1296.44 1239.57 1295.23 1240.08 1295.55C1240.58 1295.86 1241 1295.62 1241 1295.01C1241 1294.39 1243.41 1290.88 1246.36 1287.2C1262.77 1266.69 1286.01 1227.29 1291.01 1211.5C1291.7 1209.3 1293.4 1205.25 1294.79 1202.5C1296.17 1199.75 1298.32 1194.58 1299.57 1191C1300.81 1187.43 1303.24 1180.7 1304.96 1176.06C1308.81 1165.66 1313.34 1143.41 1315.67 1123.5C1316.93 1112.69 1317.43 1100.54 1317.46 1080C1317.49 1053.43 1317.31 1050.33 1314.69 1034.2C1311.39 1013.9 1305.84 992.842 1298.81 974C1292.76 957.793 1285.21 940.7 1281.25 934.226C1279.65 931.627 1277.82 927.953 1277.16 926.063C1275.41 920.988 1262.61 902.333 1250.62 887.367C1230 861.628 1196.04 833.776 1171.31 822.323C1167.35 820.491 1163.88 818.615 1163.6 818.154C1162.77 816.815 1135.24 806.034 1119.5 800.885C1106.72 796.703 1088.72 793.2 1072.78 791.79C1065.24 791.123 1059.6 790.247 1060.25 789.843C1062.95 788.175 1059.14 787.5 1047.02 787.5C1036.62 787.5 1033.86 787.806 1032.36 789.126C1031.2 790.139 1027.68 791.005 1023 791.425C1013.47 792.281 1000.12 794.468 988.104 797.14C973.597 800.368 949 809.081 949 810.993C949 811.404 947.01 812.297 944.579 812.978C938.998 814.54 914.611 829.503 904.175 837.767C888.306 850.334 869.554 871.947 862.796 885.46C861.135 888.782 859.211 892.175 858.522 893C856.696 895.184 849.567 914.052 846.62 924.5C842.798 938.051 840.838 950.188 840.66 961.408C840.524 969.961 840.813 972.034 842.549 975C844.708 978.686 849.759 981.137 853.293 980.213C856.028 979.498 857.214 975.984 861.969 954.511C864.281 944.067 866.743 934.167 867.44 932.511C868.948 928.927 878.422 915.58 884.598 908.341C887.019 905.503 889 902.933 889 902.631C889 901.519 898.824 892.98 911 883.509C931.927 867.229 961.141 853.694 988 847.833C997.613 845.735 1000.86 845.548 1026.5 845.619L1054.5 845.697L1076.73 851.861C1105.31 859.782 1119.53 866.068 1145.26 882.149C1172.28 899.032 1193.08 920.48 1214.67 953.717C1223.38 967.133 1228.24 977.171 1234.09 993.856C1236.34 1000.26 1238.82 1006.5 1239.59 1007.72C1240.37 1008.93 1241 1011.36 1241 1013.1C1241 1014.85 1242.46 1023.07 1244.25 1031.39C1247.43 1046.24 1247.49 1046.96 1247.5 1072.5C1247.5 1098.04 1247.43 1098.87 1243.8 1119.5C1241.5 1132.57 1238.75 1144.47 1236.52 1151C1234.56 1156.78 1232.29 1164 1231.5 1167.05C1230.21 1171.97 1224.36 1185.23 1214.73 1205C1212.99 1208.58 1210.43 1213.02 1209.03 1214.88C1207.64 1216.74 1204.7 1221.3 1202.5 1225.02C1196.07 1235.9 1190.71 1243.28 1180.09 1255.89C1174.61 1262.4 1167.87 1270.71 1165.11 1274.35C1162.36 1277.99 1158.39 1282.44 1156.3 1284.23C1154.21 1286.02 1147.64 1291.87 1141.7 1297.22C1127.12 1310.36 1115.96 1318.85 1094 1333.49C1063.91 1353.57 1043.94 1363.33 997.516 1380.66C974.817 1389.14 911.488 1404 898.06 1404C896.002 1404 889.859 1404.98 884.409 1406.18C875.097 1408.22 872.022 1408.35 833.37 1408.3C795.319 1408.26 791.613 1408.1 783.87 1406.19C779.266 1405.06 770.55 1403.63 764.5 1403.01C752.136 1401.75 717.171 1395.03 706.5 1391.86C664.904 1379.51 637.026 1368.14 606.5 1351.07C584.367 1338.7 553.33 1317.97 534.654 1303.1C512.89 1285.76 470.999 1242.61 453.012 1219C441.064 1203.32 420.256 1171.91 412.264 1157.5C402.937 1140.68 389.83 1114.55 381.671 1096.5C357.307 1042.61 341.38 968.501 337.792 892.333C333.941 810.602 349.531 717.958 379.999 641.5C381.753 637.1 383.981 631.475 384.95 629C389.776 616.678 397.488 599.26 400.016 594.972C401.578 592.324 406.273 583.409 410.452 575.16C414.63 566.911 421.934 553.713 426.682 545.831C431.43 537.949 436.186 529.54 437.251 527.145C438.315 524.75 441.994 519.125 445.425 514.645C448.857 510.165 457.089 498.85 463.719 489.5C470.348 480.15 479.459 468 483.965 462.5C488.471 457 493.904 450.25 496.038 447.5C502.891 438.669 509.972 430.673 528.115 411.277C530.802 408.405 533 405.608 533 405.062C533 404.517 533.858 403.611 534.907 403.05C535.956 402.488 545.069 393.792 555.157 383.724C565.246 373.656 579.291 360.49 586.369 354.466C593.446 348.442 600.068 342.458 601.084 341.167C602.099 339.876 604.912 337.506 607.335 335.902C609.757 334.297 613.935 330.925 616.62 328.409C619.304 325.893 622.653 323.228 624.063 322.488C625.472 321.748 628.847 319.175 631.563 316.77C643.722 306.001 679.952 280.654 706 264.694C709.575 262.504 714.308 259.477 716.517 257.968C718.726 256.459 723.676 253.536 727.517 251.472C731.358 249.408 739.9 244.698 746.5 241.006C790.208 216.553 852.233 188.972 896 174.526C903.975 171.893 911.21 169.123 912.079 168.37C912.947 167.616 914.304 167 915.095 167C916.599 167 968.391 153.081 992.5 146.197C1000.2 143.998 1009.17 141.887 1012.44 141.505C1015.7 141.122 1019.52 140.367 1020.94 139.825C1022.35 139.283 1030.03 137.745 1038 136.407C1045.98 135.069 1060.38 132.414 1070 130.507C1094.18 125.715 1096.33 125.46 1147.31 121.328C1185.51 118.231 1197.07 117.661 1222 117.641C1252.94 117.618 1302.49 120.043 1321.96 122.534C1328.26 123.34 1336.08 124 1339.33 124C1342.58 124 1352.5 125.153 1361.37 126.563C1370.24 127.972 1381.78 129.723 1387 130.454C1392.23 131.184 1401 133.019 1406.5 134.53C1414.67 136.774 1418.73 137.298 1428.64 137.389C1443.71 137.527 1445 136.788 1445 127.993C1445 115.694 1438.48 111.476 1410.88 105.925C1361.63 96.019 1314.11 89.835 1265.5 87.008C1245.81 85.863 1185.17 85.921 1164 87.106ZM632.5 206.733C631.4 207.008 629.375 208.017 628 208.974C624.1 211.688 612.969 216.702 608 217.984C601.479 219.665 589.281 226.83 588.596 229.381C587.24 234.435 587.836 236 591.116 236C593.537 236 595.263 234.92 598.866 231.152C602.292 227.569 604.543 226.112 607.5 225.565C613.128 224.523 630.736 215.818 635.422 211.76C640.647 207.235 639.357 205.016 632.5 206.733ZM544.585 253.761C531.409 261.896 520 272.281 520 276.14C520 277.578 520.713 279.347 521.584 280.07C524.029 282.099 531.935 281.637 536.679 279.189C546.58 274.079 559.285 260.827 560.603 254.235C561.318 250.661 559.598 246.996 557.215 247.011C556.272 247.018 550.588 250.055 544.585 253.761ZM472.473 307.341C458.273 318.636 451 327.755 451 334.268C451 337.786 452.888 339 458.36 339H463.319L474.541 327.75C480.713 321.563 486.715 314.925 487.878 313C490.647 308.416 490.61 304.541 487.777 302.557C483.775 299.753 480.874 300.66 472.473 307.341ZM1119.5 350.538C1033.3 358.847 963.087 375.249 896.5 402.628C876.977 410.655 838.358 430.119 833.25 434.506C829.818 437.453 829 438.802 829 441.514C829 445.833 834.913 461 836.597 461C839.154 461 852.863 455.568 870 447.765C891.265 438.082 937.374 419.921 956.5 413.695C980.68 405.824 1021.06 396.713 1057 391.018C1064.43 389.842 1073.88 388.234 1078 387.446C1082.13 386.657 1090.68 385.551 1097 384.989C1103.33 384.426 1111.2 383.506 1114.5 382.945C1117.8 382.384 1135.25 381.66 1153.27 381.337C1190.5 380.671 1189.48 380.904 1192.41 372.324C1196.07 361.573 1193.51 352.189 1186.3 349.933C1178.92 347.621 1146.74 347.913 1119.5 350.538ZM1259.83 351.076C1251.22 352.34 1247.61 354.256 1244.02 359.471C1240.9 364.001 1240.82 364.408 1241.15 372.992C1241.73 387.685 1242.3 387.951 1287 394.451C1316.64 398.76 1346.78 405.352 1367.64 412.092C1375.97 414.781 1386.77 418.1 1391.64 419.465C1406.22 423.551 1439.6 435.271 1453.5 441.177C1460.65 444.216 1468.3 447.271 1470.5 447.966C1474.67 449.285 1510.75 466.569 1531.5 477.185C1552.54 487.952 1579.71 505.18 1617.63 531.796C1630.2 540.619 1654.53 559.958 1664.5 569.049C1669.45 573.563 1675.98 579.331 1679 581.869C1682.03 584.406 1687.2 588.907 1690.5 591.87C1700.83 601.15 1707.44 602.708 1717.96 598.349C1721.69 596.804 1729.16 588.343 1730.95 583.636C1733.79 576.175 1729.78 566.371 1719.65 556C1699.51 535.374 1688.68 525.7 1661.8 504.336C1634.33 482.511 1629.42 478.793 1621.7 474C1617.71 471.525 1612.44 468.001 1609.98 466.17C1600.18 458.881 1558.08 434.572 1539.5 425.477C1527.13 419.423 1513.04 413.35 1492 405.013C1486.78 402.943 1480.25 400.251 1477.5 399.032C1469.91 395.667 1421.29 379.642 1402.88 374.436C1381.26 368.323 1334.39 358.416 1316 356.072C1297.82 353.755 1284.24 351.917 1278.39 350.979C1271.45 349.87 1267.93 349.888 1259.83 351.076ZM408.361 366.25C391.761 383.092 386.483 391.297 389.102 396.191C390.337 398.497 393.994 400 398.375 400C401.275 400 402.677 398.771 411.56 388.433C423 375.12 427.82 367.882 428.649 362.774C429.179 359.51 428.946 359.024 426.167 357.586C420.507 354.659 419.121 355.334 408.361 366.25ZM353.779 432.442C344.221 439.74 314.56 482.831 290.755 524C260.365 576.558 229.638 650.945 216.968 702.631C211.504 724.92 206.381 751.172 204.487 766.589C203.614 773.69 202.141 782.875 201.212 787C200.128 791.815 199.52 798.933 199.512 806.884L199.5 819.268L202.318 821.38C206.008 824.146 218.836 824.931 224.139 822.715C227.308 821.391 227.79 820.673 228.764 815.818C229.363 812.838 230.577 803.897 231.463 795.95C237.795 739.113 246.618 696.113 261.204 651C271.32 619.71 277.689 604.61 297.898 564C306.52 546.675 314.458 530.611 315.537 528.302C319.44 519.955 351.124 467.986 359.313 456.5C367.949 444.385 368.223 443.782 367.794 437.834C367.569 434.718 366.793 431.455 366.07 430.584C363.83 427.886 358.738 428.656 353.779 432.442ZM1104 439.977C1099.88 441.044 1088.4 442.634 1078.5 443.512C1043.02 446.656 1024.92 450.257 993 460.528C985.575 462.917 976.575 465.406 973 466.058C969.425 466.711 965.081 468.049 963.347 469.031C961.613 470.014 957.563 471.362 954.347 472.026C946.843 473.577 935.617 477.557 930.5 480.481C928.3 481.738 921.295 484.796 914.934 487.278C901.278 492.605 894.062 496.142 872.224 508.214C863.273 513.163 853.598 518.099 850.724 519.182C847.851 520.266 844.375 522.201 843 523.482C841.625 524.763 836 528.626 830.5 532.065C805.27 547.842 793.3 556.601 772.535 574.477C743.524 599.453 715.712 628.263 699.321 650.32C695.161 655.919 691.412 660.725 690.99 661C690.568 661.275 688.936 663.59 687.362 666.144C685.788 668.698 681.06 675.898 676.854 682.144C664.656 700.262 644.041 738.798 635.471 759.502C629.696 773.453 619.231 805.806 615.58 821C607.602 854.195 605.54 874.158 606.278 911.078C606.723 933.299 607.039 936.807 609.792 950C616.015 979.824 623.618 1006.95 628.99 1018.5C630.525 1021.8 632.082 1025.5 632.451 1026.73C633.735 1031 648.048 1057.35 653.682 1065.82C667.221 1086.17 687.51 1108.68 704.647 1122.39C730.805 1143.3 787.089 1172.63 806.5 1175.46C808.7 1175.78 813.875 1176.91 818 1177.97C837.716 1183.03 847.208 1184.04 874.5 1183.98C893.181 1183.94 902.471 1183.52 907.5 1182.47C911.35 1181.67 918.338 1180.36 923.03 1179.54C933.282 1177.76 947.661 1173.69 953.286 1170.98C955.535 1169.89 958.191 1169 959.188 1169C960.185 1169 961 1168.62 961 1168.16C961 1167.69 964.263 1166.07 968.25 1164.54C976.896 1161.23 991.12 1153.8 996 1150.06C997.925 1148.58 1001.75 1146.08 1004.5 1144.51C1011.3 1140.62 1031 1120.82 1034.87 1114C1038.34 1107.87 1039.06 1101.62 1036.42 1100.61C1031.89 1098.87 1028.05 1100.01 1022.83 1104.65C1015.64 1111.04 1007.43 1116.18 987.5 1126.76C970.086 1136.01 952.707 1143.07 931.5 1149.49C919.68 1153.08 915.513 1153.67 888.321 1155.63C874.944 1156.59 841.745 1154.21 835.713 1151.87C833.08 1150.84 829.48 1150 827.713 1149.99C825.946 1149.98 822.475 1149.36 820 1148.59C808.696 1145.11 781.576 1134.33 772.712 1129.79C729.137 1107.47 692.37 1067.12 669.729 1016.77C661.792 999.116 658.248 988.423 654.942 972.162C653.339 964.276 651.604 956.176 651.087 954.162C647.428 939.913 646.957 934.017 646.866 901.378L646.774 868.5L651.377 844.5C659.005 804.724 669.093 775.346 687.088 740.5C693.621 727.85 700.661 714.963 702.733 711.863C704.805 708.763 712.2 697.654 719.167 687.178C726.133 676.701 734.458 665.238 737.667 661.704C740.875 658.17 746.425 651.969 750 647.922C760.749 635.757 792.885 603.892 802.425 595.94C807.334 591.848 815.951 585.021 821.574 580.769C827.196 576.517 834.205 570.846 837.148 568.166C842.045 563.707 857.658 552.346 885 533.346C890.775 529.333 901.332 521.355 908.459 515.618C919.9 506.408 923.298 504.302 937.459 497.638C963.482 485.394 995.646 473.17 1014 468.549C1035.55 463.125 1077.96 455.627 1099.47 453.441C1107.7 452.605 1116.47 451.422 1118.97 450.814C1129.79 448.172 1131.98 444.562 1124.93 440.965C1119.13 438.008 1112.77 437.707 1104 439.977ZM1166.58 440.116C1164.66 441.625 1163.98 442.977 1164.2 444.828C1164.7 449.091 1168.42 449.783 1207.38 452.859C1217.86 453.687 1218.41 453.629 1222.63 451.274C1225.03 449.929 1227 448.429 1227 447.94C1227 445.169 1213.61 441.791 1193.51 439.488C1175.19 437.39 1169.89 437.514 1166.58 440.116ZM1244.5 449.849L1239.5 450.5L1248.5 454.21C1260.04 458.965 1261.35 459.264 1287 462.979C1305.22 465.618 1310.75 466.85 1323.2 471.047C1331.29 473.771 1338.56 476 1339.37 476C1343.84 476 1389.9 493.011 1412.92 503.17C1427.29 509.51 1458.12 525.004 1471.69 532.713C1487.21 541.524 1523.96 566.444 1538.52 578.023C1581.11 611.904 1631.08 661.151 1661.77 699.5C1682.64 725.579 1716.31 778.65 1732.49 810.971C1748.58 843.13 1768.12 893.735 1777.1 926.5C1779.81 936.4 1782.87 946.975 1783.9 950C1784.93 953.025 1786.27 958.768 1786.88 962.762C1787.5 966.756 1790.01 978.523 1792.48 988.911C1799 1016.4 1801.29 1032.38 1805.05 1076.48C1806.39 1092.29 1807 1108.19 1807 1127.39C1807 1154.26 1806.56 1161.53 1802 1209C1800.71 1222.47 1800.73 1230.15 1802.06 1233.69C1804.89 1241.17 1812.85 1245 1825.56 1245H1832.75L1834.88 1240.06C1836.05 1237.35 1837 1233.54 1837 1231.6C1837 1229.66 1837.9 1223.44 1839 1217.79C1840.1 1212.13 1841 1205.89 1841 1203.93C1841 1201.96 1841.65 1195.89 1842.45 1190.43C1844.97 1173.06 1846.48 1111.23 1845.08 1082.5C1844.41 1068.75 1843.4 1054.35 1842.83 1050.5C1842.27 1046.65 1841.49 1036.35 1841.09 1027.62C1840.51 1014.92 1840.06 1011.51 1838.8 1010.59C1837.76 1009.83 1836.34 1004.62 1834.62 995.271C1829.41 966.923 1815.36 916.81 1808.03 900.482C1806.55 897.172 1804.33 891.148 1803.1 887.096C1795.2 861.093 1758.71 792.745 1727.5 745.5C1682.52 677.415 1629.2 620.217 1567.5 573.869C1545.86 557.617 1519.92 540.821 1500.5 530.491C1494.45 527.273 1487.83 523.602 1485.79 522.333C1481.08 519.402 1455.43 507.756 1424.08 494.306C1396.93 482.66 1366.22 472.016 1352.5 469.5C1347.55 468.592 1339.45 466.77 1334.5 465.451C1329.55 464.133 1319.88 462.344 1313 461.475C1299.42 459.759 1295.51 458.888 1277.71 453.6C1265.34 449.925 1253.87 448.63 1244.5 449.849ZM783.836 464.34C775.198 469.262 764.088 477.166 745.628 491.521C685.482 538.292 635.505 595.154 599.283 658.03C585.449 682.043 582.638 689.466 585.373 694.755C587.066 698.028 593.052 701 597.952 701C601.408 701 601.408 701 613.986 680.024C651.464 617.527 691.231 570.401 743.955 526C754.078 517.475 765.016 508.201 768.261 505.392C771.505 502.582 778.88 497.437 784.649 493.958C803.284 482.717 807.272 477.59 803.522 469.688C801.48 465.384 799.485 463.518 794.857 461.585C791.346 460.118 791.167 460.162 783.836 464.34ZM1121.5 474.063C1115.45 474.498 1102.4 475.347 1092.5 475.949C1068.32 477.42 1054.88 479.386 1022.5 486.19C1012.05 488.386 1002.6 490.746 1001.5 491.435C1000.4 492.124 997.658 492.976 995.407 493.33C990.456 494.108 982.733 497.412 981.01 499.488C980.32 500.32 978.446 501 976.845 501C972.63 501 967.798 503.285 963.169 507.466C949.525 519.793 953.58 541.196 969.855 542.76C973.46 543.106 976.851 542.454 983.727 540.094C988.732 538.375 997.029 536.251 1002.16 535.372C1007.3 534.494 1012.63 533.214 1014 532.527C1015.38 531.84 1018.53 530.991 1021 530.64C1023.48 530.289 1029.33 529.326 1034 528.499C1079.14 520.518 1104.1 518.501 1139.26 519.99C1194.25 522.318 1238.76 530.225 1289.21 546.628C1306.56 552.267 1314.54 555.439 1344 568.394C1363.94 577.161 1361.83 576.101 1385 589.05C1408.82 602.363 1418.44 608.261 1429.82 616.543C1450.49 631.579 1459.78 638 1460.87 638C1461.49 638 1462 638.379 1462 638.843C1462 639.307 1468.86 645.587 1477.25 652.8C1502.83 674.797 1526.73 699.078 1541.5 718.062C1545.9 723.719 1552.25 731.805 1555.62 736.032C1563.54 745.992 1581.1 772.29 1583.45 777.72C1584.46 780.042 1586.16 782.742 1587.25 783.72C1588.33 784.699 1590.51 788.057 1592.09 791.182C1593.67 794.307 1597.46 800.983 1600.51 806.018C1610.11 821.844 1629.23 865.354 1637.14 889.365C1664.29 971.823 1672.73 1044.22 1664.89 1127.5C1663.15 1145.98 1657.67 1181.56 1653.41 1202C1652.55 1206.13 1650.59 1215.58 1649.05 1223C1644.67 1244.22 1639.17 1261.62 1624.57 1300.5C1621.47 1308.75 1618.24 1316.63 1617.39 1318C1616.55 1319.38 1614.65 1323.19 1613.18 1326.48C1583.16 1393.57 1540.05 1457.87 1486.81 1515C1458.43 1545.45 1416.9 1582.48 1382.5 1608.02C1371.1 1616.48 1329.78 1645.06 1321.5 1650.22C1319.85 1651.25 1312.2 1656.19 1304.5 1661.21C1296.8 1666.23 1287.44 1671.85 1283.71 1673.7C1279.97 1675.56 1276.64 1677.78 1276.31 1678.64C1275.28 1681.33 1278.16 1682.03 1281.97 1680.01C1283.91 1678.98 1287.75 1677.42 1290.5 1676.55C1293.25 1675.68 1297.98 1673.57 1301 1671.86C1304.03 1670.14 1309.43 1667.29 1313 1665.5C1321.41 1661.31 1365.55 1634.69 1378.59 1625.94C1436.04 1587.4 1497.51 1530.21 1543.77 1472.24C1564.74 1445.96 1580.09 1423.94 1602.52 1387.94C1624.49 1352.68 1628.2 1345.9 1646.02 1308.51C1652.54 1294.82 1661.48 1272.65 1667.2 1256C1668.05 1253.53 1670.36 1247.23 1672.33 1242C1676.11 1232 1683.54 1206.03 1686.49 1192.5C1687.44 1188.1 1689.26 1181.13 1690.51 1177C1691.77 1172.88 1693.32 1165 1693.96 1159.5C1694.61 1154 1696.01 1145 1697.07 1139.5C1699.67 1126.1 1701.83 1105.83 1702.65 1087.22C1703.1 1076.87 1703.67 1072.06 1704.41 1072.3C1705.9 1072.8 1706.84 1080.82 1707.39 1098C1707.65 1105.98 1708.18 1117.08 1708.58 1122.69C1709.29 1132.83 1709.31 1132.9 1713.15 1136.64C1716.44 1139.85 1717 1141.04 1717 1144.7C1717 1147.63 1717.43 1149 1718.34 1149C1720.4 1149 1722.03 1144.41 1723.13 1135.56C1723.67 1131.13 1725 1122.75 1726.06 1116.94C1727.13 1111.13 1728 1102.88 1728 1098.6C1728 1094.33 1728.72 1085.13 1729.61 1078.16C1730.89 1068.06 1731.08 1060.55 1730.57 1041C1729.78 1011.1 1728.28 992.026 1726.55 990C1725.84 989.175 1724.97 984.476 1724.61 979.558C1724.25 974.639 1723.32 967.664 1722.54 964.058C1721.76 960.451 1720.37 953.675 1719.46 949C1716.04 931.42 1709.65 906.962 1704.43 891.5C1701.46 882.7 1698.32 873.025 1697.46 870.001C1696.6 866.976 1693.15 857.976 1689.8 850.001C1686.44 842.025 1682.61 832.8 1681.29 829.5C1676.89 818.499 1672.76 809.581 1668.12 801C1665.58 796.325 1662.36 789.8 1660.95 786.5C1652.05 765.641 1622.6 722.014 1592.1 684.5C1572.72 660.659 1528.85 618.444 1500.5 596.342C1470.03 572.59 1416.96 539.593 1396 531.376C1393.53 530.405 1388.9 528.096 1385.73 526.244C1382.55 524.392 1377.15 521.824 1373.73 520.539C1370.3 519.253 1359.85 515.293 1350.5 511.739C1330.76 504.238 1305.05 495.678 1295.8 493.534C1292.27 492.714 1287.52 491.39 1285.26 490.592C1279.25 488.471 1237.46 480.349 1223.5 478.59C1206.94 476.502 1187.93 475.165 1165.5 474.51C1155.05 474.205 1143.35 473.802 1139.5 473.613C1135.65 473.425 1127.55 473.628 1121.5 474.063ZM907.962 545.316C892.988 551.854 848.766 579.957 837.557 590.057C834.776 592.563 830.925 595.692 829 597.009C817.585 604.82 792.372 626.909 784.781 635.75C782.427 638.492 777.86 643.138 774.633 646.075C771.407 649.011 763.811 657.058 757.754 663.957C709.514 718.9 672.84 790.703 662.476 850.5C658.439 873.796 658.728 940.187 662.973 964.274C667.177 988.135 675.185 1014.19 684.042 1032.82C688.963 1043.18 698.445 1058.15 706.001 1067.5C708.224 1070.25 711.436 1074.22 713.138 1076.32C717.139 1081.26 722.267 1083.85 724.452 1082.04C727.326 1079.65 725.551 1072.1 720.719 1066.16C713.011 1056.68 702.55 1040.34 697.978 1030.65C688.452 1010.45 679.117 979.285 673.824 950C671.809 938.857 671.574 934.461 671.654 909.5C671.802 862.948 677.008 832.73 691.207 796C711.308 744.002 755.734 681.447 803.246 638.242C819.209 623.726 839.071 607.739 846 603.827C849.025 602.119 859.603 595.245 869.506 588.551C879.409 581.857 890.659 574.471 894.506 572.138C898.353 569.805 902.175 567.488 903 566.988C903.825 566.489 908.325 564.45 913 562.458C917.675 560.466 922.288 558.129 923.25 557.263C925.244 555.47 925.69 547.158 923.965 543.934C922.4 541.01 916.696 541.502 907.962 545.316ZM1749.14 617.647C1745.08 621.853 1740.87 627.304 1739.78 629.762L1737.8 634.23L1742.65 641.342C1745.32 645.254 1753.55 656.339 1760.95 665.977C1779.56 690.209 1788.3 702.426 1797.47 717C1810.09 737.057 1818.97 750.017 1823.38 754.793L1827.48 759.243L1834.39 758.6C1845.23 757.593 1853.86 752.728 1858.29 745.128L1860.08 742.06L1850.99 724.481C1839.12 701.527 1832.08 689.318 1825.05 679.5C1821.9 675.1 1817.73 669.025 1815.8 666C1813.86 662.975 1809.18 656.581 1805.39 651.79C1801.6 647 1796.93 640.95 1795 638.345C1793.08 635.74 1786.63 628.297 1780.68 621.805L1769.86 610H1763.19H1756.52L1749.14 617.647ZM568.876 726.12C566.88 726.852 565.29 729.167 562.235 735.791C555.015 751.448 544.553 786.595 541.932 804C541.311 808.125 540.142 814.65 539.335 818.5C532.256 852.273 531.034 906.225 536.515 943.023C538.724 957.852 544.925 986.954 546.542 990.081C547.344 991.632 548 993.641 548 994.546C548 995.451 548.948 997.523 550.107 999.15C551.867 1001.62 552.796 1002.06 555.757 1001.8C563.748 1001.12 565.72 991.485 562.165 970.499C561.046 963.9 559.846 955.8 559.498 952.5C559.149 949.2 558.18 943.264 557.345 939.31C556.099 933.411 555.9 925.691 556.236 896.31C556.665 858.876 558.323 836.951 562.007 820C563.023 815.325 564.622 806.775 565.559 801C566.563 794.81 569.858 782.643 573.584 771.361C577.061 760.834 580.601 749.218 581.453 745.549C583.088 738.498 583.464 730.241 582.235 728.4C580.128 725.244 574.079 724.212 568.876 726.12ZM1073.28 736.665C1068.24 737.087 1068.01 737.24 1066.94 740.801C1066.33 742.836 1065.98 746.031 1066.17 747.901C1066.68 753.165 1069.82 754.817 1081.5 755.978C1093.58 757.177 1134.14 765.274 1142.5 768.153C1145.8 769.29 1156.81 773.095 1166.96 776.61C1177.11 780.124 1186.22 783 1187.2 783C1191.33 783 1197.66 769.858 1195.32 766.146C1191.8 760.564 1152.11 745.754 1129.01 741.405C1124.33 740.523 1117.21 739.162 1113.19 738.38C1105.59 736.901 1082.36 735.903 1073.28 736.665ZM1013.87 738.976C996.893 741.253 985.212 744.237 977.797 748.189C971.156 751.728 968.757 754.827 969.191 759.305L969.5 762.5L976.425 762.8C980.677 762.984 987.046 762.318 992.925 761.075C998.191 759.961 1006.33 758.585 1011 758.017C1024.79 756.34 1032.36 754.864 1034.71 753.391C1037.34 751.744 1039.3 745.867 1038.83 741L1038.5 737.5L1033 737.324C1029.98 737.227 1021.37 737.971 1013.87 738.976ZM943.426 762.889C942.917 763.352 939.208 764.967 935.184 766.478C926.304 769.813 923.626 772.305 924.45 776.469C925.352 781.027 926.592 781.584 929.183 778.595C930.457 777.126 934.875 774.253 939 772.212C944.327 769.575 946.586 767.895 946.798 766.412C947.138 764.038 944.823 761.62 943.426 762.889ZM1855.5 776.01C1849.33 780.737 1848.05 782.884 1848.02 788.568C1847.98 799.315 1853.86 811.355 1860.91 814.953C1867.2 818.163 1871.2 817.686 1875.96 813.155C1879.84 809.466 1880 809.057 1880 803.085C1880 795.315 1875.28 783.288 1870.05 777.716C1865.08 772.419 1860.84 771.922 1855.5 776.01ZM1225 785.745C1223.33 787.26 1221.07 790.863 1219.98 793.751L1218.01 799.002L1221.62 802.996C1223.6 805.193 1228.89 809.556 1233.36 812.691C1243.4 819.718 1278.54 854.553 1289.81 868.64C1320.46 906.954 1345.66 960.024 1357.64 1011.5C1363.15 1035.18 1364.81 1048.43 1365.83 1077C1367.22 1115.89 1365.93 1134.15 1359.58 1165.5C1354.05 1192.84 1350.35 1208.22 1348.16 1213C1347.28 1214.93 1346.39 1220.09 1346.19 1224.51C1345.75 1233.83 1345.92 1234.08 1355.74 1238.95C1367.26 1244.66 1368.51 1244.35 1372.16 1234.83C1381.71 1209.96 1389.14 1178.48 1395.61 1135.5C1397.75 1121.3 1398.65 1075.38 1397.05 1062C1396.43 1056.78 1395.48 1048.07 1394.93 1042.65C1394.39 1037.24 1393.25 1031.16 1392.41 1029.15C1391.56 1027.14 1390.45 1021.8 1389.93 1017.27C1387.93 999.832 1377.23 964.957 1366.04 939.414C1348.79 900.003 1320.48 858.406 1290.54 828.456C1278.07 815.985 1257.55 799.037 1252.08 796.7C1250.66 796.093 1246.35 793.46 1242.5 790.849C1238.65 788.238 1233.82 785.402 1231.77 784.546C1228.12 783.023 1227.98 783.048 1225 785.745ZM1884.85 836.552C1879.51 839.289 1876 843.251 1876 846.53C1876 849.845 1879.29 859.999 1887.65 882.5C1891.73 893.5 1895.77 904.425 1896.63 906.777C1898.34 911.482 1903.82 916 1907.81 916C1911.12 916 1915.72 911.012 1916.57 906.495C1917.35 902.298 1913.46 887.411 1905.42 863.886C1899.91 847.781 1896.71 841.071 1892.71 837.235L1889.5 834.164L1884.85 836.552ZM203.569 856.064C199.255 856.725 196.846 857.727 194.737 859.737L191.838 862.5L192.291 900.5C192.7 934.812 192.997 940.215 195.349 956.173C199.253 982.659 207.282 1021.53 212.458 1039C214.984 1047.53 217.941 1057.88 219.029 1062C222.691 1075.89 227.215 1089.04 229.473 1092.37C230.706 1094.18 232.045 1097.43 232.447 1099.58C233.883 1107.27 250.905 1145.61 257.49 1156C259.059 1158.48 263.872 1167.48 268.186 1176C272.5 1184.53 279.285 1196.12 283.264 1201.78C287.244 1207.43 294.775 1218.2 300 1225.7C305.225 1233.21 311.157 1241.19 313.182 1243.43C315.206 1245.67 319.546 1251.1 322.825 1255.5C326.103 1259.9 334.624 1270.48 341.76 1279C419.482 1371.86 516.55 1440.66 621.5 1477.29C666.502 1492.99 696.557 1501 716.799 1502.67C721.035 1503.02 724.772 1503.72 725.104 1504.22C726.242 1505.96 733.508 1506.95 745.23 1506.98L756.96 1507L759.97 1501.75C763.769 1495.13 763.835 1492.48 760.25 1490.63C756.612 1488.75 736.486 1484.28 721.5 1482.02C714.9 1481.03 707.475 1479.46 705 1478.55C702.525 1477.63 694.425 1475.13 687 1472.99C669.042 1467.82 631.006 1454.75 613 1447.56C595.874 1440.72 563.168 1424.43 543.5 1412.94C475.379 1373.16 413.696 1319.27 365.206 1257.15C360.633 1251.29 348.899 1234.58 339.128 1220C315.839 1185.26 297.956 1151.91 282.018 1113.5C257.684 1054.86 251.836 1034.69 237.937 961.5C234.519 943.497 232.989 932.886 232.965 927C232.946 922.325 232.228 914.9 231.369 910.5C230.51 906.1 229.485 893.95 229.089 883.5C228.504 868.023 228.028 863.813 226.521 860.794C225.504 858.756 224.149 856.887 223.51 856.642C220.719 855.571 209.003 855.232 203.569 856.064ZM1911.48 943.024C1909.7 944.987 1909.71 945.442 1911.82 958.274C1913.02 965.548 1915.97 979.825 1918.39 990C1925.25 1018.85 1924.38 1016.6 1929.07 1017.79C1934.19 1019.09 1934.45 1018.53 1933.75 1007.67C1933.18 998.753 1924.73 955.993 1922.48 950.593C1920.74 946.445 1916.25 941 1914.57 941C1913.88 941 1912.49 941.911 1911.48 943.024ZM113.266 978.904C109.247 982.575 108.574 985.335 109.37 994.883C111.031 1014.8 116.181 1039.74 119.411 1043.49C121.56 1046 121.949 1046.09 125.796 1045.06C133.556 1042.97 135.798 1036.45 132.542 1025.43C131.741 1022.72 129.949 1013.53 128.561 1005C125.666 987.222 124.786 983.753 122.023 979.25C119.561 975.237 117.375 975.151 113.266 978.904ZM571.557 1034.22C568.956 1037.94 569.756 1042.4 575.052 1053.71C584.856 1074.65 593.613 1087.35 600.1 1090.04C602.945 1091.22 603.415 1091.16 604.705 1089.43C605.622 1088.2 605.946 1086.25 605.599 1084.04C604.92 1079.7 586.302 1042 582.005 1036.25C578.279 1031.27 574.184 1030.47 571.557 1034.22ZM125.957 1066.64C120.033 1072.18 119.982 1072.65 123.563 1088.88C128.397 1110.8 138.307 1142.22 148.675 1168.5C157.556 1191.01 178.68 1232.37 190.458 1250.3C193.313 1254.65 197.321 1256.2 205.63 1256.17C212.258 1256.14 213.414 1255.83 217.367 1252.99C224.649 1247.76 225.777 1242.44 221.426 1233.85C220.011 1231.06 213.997 1220.16 208.062 1209.64C189.431 1176.59 183.453 1164.28 172.547 1136.5C156.922 1096.7 153.334 1087.15 151.499 1080.5C148.143 1068.34 142.397 1062.01 134.707 1062C131.572 1062 130.055 1062.8 125.957 1066.64ZM1713.61 1154.58C1713.27 1155.45 1713 1158.14 1713 1160.55C1713 1163.04 1712.11 1166.66 1710.93 1168.91C1709.3 1172.03 1709.01 1173.85 1709.54 1177.4C1710.08 1181.04 1709.81 1182.58 1708.11 1185.33C1706.9 1187.29 1706 1190.41 1706 1192.69C1706 1197.76 1703.97 1204.53 1697.95 1219.48C1695.29 1226.09 1692.61 1233.75 1691.99 1236.5C1691.37 1239.25 1690.45 1242.28 1689.93 1243.24C1689.42 1244.19 1687.46 1249.37 1685.58 1254.74C1675.62 1283.21 1673.03 1290.06 1670.02 1295.99C1668.21 1299.56 1665.71 1305.2 1664.46 1308.52C1663.2 1311.85 1658.94 1320.75 1654.99 1328.31C1651.04 1335.86 1646.34 1345.52 1644.56 1349.77C1642.77 1354.02 1637.48 1364.03 1632.8 1372C1628.13 1379.98 1621.28 1391.68 1617.58 1398C1597.37 1432.57 1564.46 1476.91 1532.03 1513.27C1505.71 1542.77 1450.15 1596.13 1430.5 1610.77C1426.1 1614.05 1415.08 1622.68 1406 1629.95C1396.93 1637.22 1382.3 1647.91 1373.5 1653.71C1364.7 1659.52 1353.69 1667.02 1349.02 1670.38C1344.36 1673.75 1339.76 1676.95 1338.81 1677.5C1328.88 1683.22 1317.18 1690.34 1306 1697.48C1298.58 1702.22 1283.95 1710.42 1273.5 1715.7C1263.05 1720.98 1243.25 1731.01 1229.5 1738C1200.1 1752.94 1154.82 1772.78 1135.5 1779.2C1132.2 1780.3 1127.25 1782.24 1124.5 1783.51C1121.75 1784.78 1112.3 1788.14 1103.5 1790.96C1094.7 1793.79 1079.4 1798.96 1069.5 1802.45C1045.82 1810.8 1047.06 1810.4 1035 1813.4C1029.23 1814.83 1018.43 1817.63 1011 1819.63C995.517 1823.79 958.779 1831.67 948.658 1833C944.894 1833.49 939.494 1834.37 936.658 1834.94C921.939 1837.93 909.381 1840.16 899.5 1841.55C884.213 1843.69 838.666 1848.94 826 1850.01C812.433 1851.16 711.014 1851.15 696 1850C689.675 1849.52 675.275 1848.63 664 1848.03C640.424 1846.78 616.697 1844.58 603 1842.39C597.775 1841.56 589.45 1840.64 584.5 1840.35C579.55 1840.06 573.475 1839.2 571 1838.43C568.525 1837.67 557.385 1835.46 546.245 1833.53C510.658 1827.35 455.167 1815.01 429.57 1807.57C409.14 1801.63 404.622 1800.67 396.717 1800.58C388.838 1800.49 387.634 1801.48 388.492 1807.34C389.738 1815.87 391.906 1818.19 403.857 1823.8C441.051 1841.25 480.68 1853.69 544.5 1867.95C557.3 1870.81 603.875 1878.55 614.5 1879.57C617.8 1879.89 625.9 1881.01 632.5 1882.05C650.08 1884.83 670.329 1886.72 708 1889.07C760.183 1892.33 825.682 1891.21 863.5 1886.4C870.1 1885.56 881.125 1884.45 888 1883.93C906.864 1882.51 947.605 1876.36 970.5 1871.49C974.35 1870.68 981.55 1869.31 986.5 1868.46C1000.77 1866.02 1042.3 1855.78 1052.5 1852.19C1054.15 1851.61 1059.1 1850.37 1063.5 1849.44C1067.9 1848.52 1082.98 1844.02 1097 1839.45C1111.03 1834.88 1124.53 1830.62 1127 1829.98C1129.48 1829.34 1132.18 1828.26 1133 1827.58C1133.83 1826.9 1136.87 1825.82 1139.76 1825.19C1144.86 1824.07 1161.11 1817.83 1177.5 1810.69C1181.9 1808.78 1187.98 1806.19 1191 1804.95C1250.71 1780.38 1310.71 1750.41 1350 1725.51C1355.78 1721.85 1365.23 1716 1371 1712.51C1376.78 1709.03 1385.28 1703.54 1389.89 1700.33C1394.51 1697.13 1402.45 1691.8 1407.53 1688.5C1420.4 1680.14 1431.29 1672.16 1445.73 1660.5C1452.55 1655 1460.28 1648.93 1462.93 1647C1473.71 1639.15 1504.73 1610.94 1523.57 1591.84C1567.78 1547.04 1594.81 1514.19 1627.57 1465.44C1646.78 1436.86 1657.22 1418.69 1674.52 1383.78C1685.72 1361.18 1703.56 1318.86 1705.88 1309.39C1706.41 1307.25 1708.25 1302.13 1709.99 1298C1715.22 1285.53 1724.13 1252.31 1726.47 1236.53L1728.09 1225.63L1724.8 1222.35C1722.98 1220.55 1718.35 1217.81 1714.5 1216.27C1707.09 1213.31 1705.29 1210.76 1708.17 1207.3C1709.9 1205.22 1711.89 1194.75 1712.64 1183.84C1713.13 1176.78 1713.56 1175.09 1714.96 1174.72C1718.13 1173.89 1718.62 1153 1715.48 1153C1714.78 1153 1713.94 1153.71 1713.61 1154.58ZM1332.5 1267.94C1329.42 1269.21 1327.88 1271.36 1318.51 1287.5C1276 1360.75 1224.67 1414.72 1152 1462.56C1111.99 1488.9 1069.71 1510.37 1027.71 1525.68C1000.98 1535.41 949.314 1549.36 928.406 1552.48C922.958 1553.29 916.475 1554.4 914 1554.93C911.525 1555.47 905.225 1556.38 900 1556.96C894.775 1557.54 887.575 1558.73 884 1559.59C878.769 1560.86 868.029 1561.3 829 1561.84L780.5 1562.5L775.075 1565.5C768.041 1569.39 765.5 1573.99 765.5 1582.83C765.5 1588.68 765.742 1589.38 768.667 1591.99C774.085 1596.84 779.868 1597.51 815.5 1597.44C838.714 1597.39 851.756 1596.9 863 1595.66C871.525 1594.71 884.8 1593.25 892.5 1592.41C909.6 1590.54 936.904 1585.44 959 1579.98C1121.87 1539.76 1259.38 1442.22 1333.95 1314.02C1346.7 1292.11 1350.34 1284.19 1350.42 1278.17C1350.49 1273.37 1350.18 1272.55 1347.23 1269.92C1344.57 1267.53 1343.1 1267.01 1339.23 1267.06C1336.63 1267.1 1333.6 1267.49 1332.5 1267.94ZM233.055 1280.13C226.191 1283.56 221 1290 221 1295.09C221 1300.56 237.769 1329.72 245.958 1338.5C247.497 1340.15 253.837 1348.03 260.047 1356C275.004 1375.21 288.146 1389.24 313.5 1413.09C339.316 1437.37 351.257 1447.65 361 1453.99C365.125 1456.67 370.3 1460.39 372.5 1462.26C374.7 1464.12 378.3 1466.71 380.5 1468.02C382.7 1469.33 387.425 1472.72 391 1475.55C394.575 1478.38 400.283 1482.56 403.683 1484.84C414.948 1492.39 450.316 1513.28 462 1519.29C468.325 1522.54 476.65 1526.91 480.5 1529C499.222 1539.15 560.191 1563.33 575 1566.48C576.925 1566.89 580.407 1568.08 582.738 1569.13C592.537 1573.54 634.904 1584.16 657.767 1587.95C693.119 1593.8 696.489 1594.24 702.584 1593.75C710.726 1593.09 717.014 1589.54 720.473 1583.64C722.607 1580 723 1578.08 723 1571.31C723 1563.68 722.83 1563.07 719.487 1558.69C715.413 1553.35 716.473 1553.73 687.843 1547.5C646.653 1538.55 619.536 1531.96 613.442 1529.41C611.584 1528.64 608.981 1528 607.657 1528C606.332 1528 602.689 1526.87 599.561 1525.48C596.432 1524.1 588.614 1521.19 582.186 1519.03C571.912 1515.56 543.907 1504.53 535.5 1500.64C533.85 1499.88 527.775 1497.14 522 1494.56C509.269 1488.86 488.491 1478.41 484.846 1475.86C483.386 1474.83 481.655 1474 481 1474C480.345 1474 478.614 1473.16 477.154 1472.13C475.694 1471.1 468.2 1466.68 460.5 1462.3C442.406 1452.02 439.846 1450.39 425.5 1440.04C418.9 1435.27 410.35 1429.34 406.5 1426.86C389.342 1415.77 325.979 1360.19 310.808 1342.91C306.265 1337.73 297.407 1327.88 291.122 1321C284.837 1314.13 275.537 1303.33 270.456 1297C256.054 1279.08 253.384 1277 244.725 1277C240.67 1277 237.755 1277.78 233.055 1280.13ZM1797.03 1279.79C1789.73 1283.47 1787.06 1288.02 1781.96 1305.5C1770.09 1346.23 1757.73 1377.48 1736.48 1420.5C1702.08 1490.13 1664.9 1545.69 1616.01 1600.5C1608.16 1609.3 1599.3 1619.5 1596.33 1623.16C1593.36 1626.82 1590.3 1630.06 1589.53 1630.35C1588.77 1630.64 1586.31 1633.2 1584.07 1636.03C1578.14 1643.53 1578.42 1646.22 1585.75 1652.13C1599.01 1662.8 1601.61 1663.2 1611.59 1656.08C1626 1645.81 1655.64 1614.14 1674.55 1588.82C1678.53 1583.5 1682.78 1578.1 1684 1576.82C1687.76 1572.88 1700.49 1555.82 1706.69 1546.43C1709.93 1541.52 1714.06 1535.48 1715.88 1533C1717.7 1530.53 1720.29 1526.34 1721.63 1523.71C1722.97 1521.08 1725.6 1516.92 1727.48 1514.46C1729.35 1512.01 1732.87 1506.52 1735.31 1502.26C1737.74 1497.99 1742.11 1490.45 1745.01 1485.5C1747.91 1480.55 1754.49 1468.2 1759.63 1458.06C1764.78 1447.92 1769.44 1439.16 1769.99 1438.61C1770.55 1438.05 1771 1436.63 1771 1435.44C1771 1434.24 1771.9 1432.13 1773 1430.73C1774.1 1429.33 1775 1427.68 1775 1427.06C1775 1426.45 1777.24 1421.04 1779.98 1415.04C1787.87 1397.78 1798.76 1370.88 1800.05 1365.46C1800.7 1362.73 1802.76 1355.96 1804.62 1350.41C1806.48 1344.86 1808 1339.63 1808 1338.77C1808 1337.92 1809.36 1334.33 1811.01 1330.78C1818.09 1315.66 1821.24 1292.51 1817.33 1284.28C1813.8 1276.85 1806.21 1275.16 1797.03 1279.79ZM1105.07 1425.64C1103.93 1427.08 1103 1428.66 1103 1429.14C1103 1430.74 1106.83 1430.02 1110.39 1427.75C1114.94 1424.85 1115.01 1423 1110.57 1423C1108.06 1423 1106.59 1423.7 1105.07 1425.64ZM1090 1432.9C1085.88 1434.45 1077.04 1438.21 1070.37 1441.28C1035.56 1457.25 992.365 1471.62 951.138 1480.94C932.604 1485.13 894.101 1492 889.14 1492C881.684 1492 876.314 1500.26 881.008 1504.51C883.918 1507.14 893.529 1507.59 903 1505.54C907.125 1504.65 915.9 1503.02 922.5 1501.92C947.001 1497.85 990.916 1484.99 1023.22 1472.44C1038.05 1466.67 1058.87 1456.43 1074 1447.46C1079.23 1444.36 1086.18 1440.73 1089.45 1439.4C1095.69 1436.86 1100 1433.56 1100 1431.33C1100 1429.47 1098.56 1429.7 1090 1432.9ZM801.895 1496.32C794.127 1498.07 790.796 1500.4 791.19 1503.81L791.5 1506.5L808.5 1507.35C817.85 1507.82 829.679 1507.89 834.788 1507.5C842.639 1506.92 844.533 1506.42 847.038 1504.31C850.569 1501.34 850.837 1498.53 847.75 1496.84C844.503 1495.06 809.26 1494.66 801.895 1496.32ZM1547.92 1673.8C1541.58 1677.53 1537.04 1681.09 1525.98 1690.98C1520.74 1695.67 1514.1 1701.48 1511.23 1703.91C1506.09 1708.24 1506 1708.4 1506 1713.84C1506 1717.91 1506.59 1720.23 1508.2 1722.59C1511.04 1726.73 1515.48 1729.35 1518.4 1728.62C1522.04 1727.7 1535.71 1719.13 1538.21 1716.19C1539.47 1714.71 1544.46 1710.14 1549.3 1706.03C1557.87 1698.76 1563.49 1691.89 1564.65 1687.26C1565.71 1683.05 1564.03 1678.13 1560.3 1674.51C1556.01 1670.33 1554 1670.22 1547.92 1673.8ZM1469.69 1736.25C1450.73 1749.84 1449.89 1750.65 1449.36 1756.03C1448.53 1764.37 1453.74 1769.29 1461.06 1767.1C1465.84 1765.67 1482.09 1755.73 1486.6 1751.47C1490.95 1747.37 1490.94 1744.52 1486.55 1738.77C1481.21 1731.77 1476.85 1731.12 1469.69 1736.25ZM1412 1776.65C1407.25 1778.19 1401.28 1781.07 1391.5 1786.51C1385.45 1789.88 1379.02 1793.23 1377.21 1793.95C1370.72 1796.56 1370.1 1802.89 1375.71 1809.1C1379.08 1812.83 1379.76 1813.16 1383.21 1812.7C1386.46 1812.26 1396.17 1808.12 1401 1805.12C1401.83 1804.6 1405.78 1802.31 1409.8 1800.02C1417.74 1795.49 1423.04 1789.48 1422.95 1785.1C1422.91 1783.3 1421.65 1781.51 1418.84 1779.25C1414.65 1775.89 1414.5 1775.83 1412 1776.65ZM1318.26 1826.82C1301.82 1835.06 1301.95 1834.92 1305.69 1840.85C1307.37 1843.5 1309.63 1843.47 1320.74 1840.63C1333.73 1837.3 1347 1829.36 1347 1824.92C1347 1822.4 1343.47 1820.35 1338 1819.71C1333.9 1819.22 1332.16 1819.85 1318.26 1826.82ZM1263.5 1848.68C1261.3 1849.5 1256.54 1851.27 1252.91 1852.61C1245.79 1855.25 1240.6 1859.69 1241.17 1862.65C1241.41 1863.91 1242.87 1864.78 1245.73 1865.38C1249.33 1866.14 1251.26 1865.79 1259.12 1862.96C1269.45 1859.23 1277.3 1854.46 1277.85 1851.57C1278.68 1847.23 1271.36 1845.76 1263.5 1848.68ZM1185.8 1870.72C1183.38 1873.47 1182.77 1876.56 1184.37 1877.9C1187.7 1880.65 1208.5 1874.71 1208.5 1871C1208.5 1869.78 1206.53 1869.45 1197.93 1869.22C1188.83 1868.98 1187.15 1869.18 1185.8 1870.72Z" fill="url(#paint0_radial_1_1893)"/>
</g>
</g>
<defs>
<filter id="filter0_d_1_1893" x="9.07666" y="-13.8177" width="2024.95" height="2004.74" filterUnits="userSpaceOnUse" color-interpolation-filters="sRGB">
<feFlood flood-opacity="0" result="BackgroundImageFix"/>
<feColorMatrix in="SourceAlpha" type="matrix" values="0 0 0 0 0 0 0 0 0 0 0 0 0 0 0 0 0 0 127 0" result="hardAlpha"/>
<feOffset/>
<feGaussianBlur stdDeviation="50"/>
<feComposite in2="hardAlpha" operator="out"/>
<feColorMatrix type="matrix" values="0 0 0 0 0.327956 0 0 0 0 0 0 0 0 0 0.634615 0 0 0 1 0"/>
<feBlend mode="normal" in2="BackgroundImageFix" result="effect1_dropShadow_1_1893"/>
<feBlend mode="normal" in="SourceGraphic" in2="effect1_dropShadow_1_1893" result="shape"/>
</filter>
<radialGradient id="paint0_radial_1_1893" cx="0" cy="0" r="1" gradientUnits="userSpaceOnUse" gradientTransform="translate(1021.55 988.553) rotate(90) scale(902.371 912.477)">
<stop stop-color="#C084FA"/>
<stop offset="1" stop-color="#A75AEF"/>
</radialGradient>
<clipPath id="clip0_1_1893">
<rect width="2000" height="2000" fill="white"/>
</clipPath>
</defs>
</svg>
